<?xml version="1.0" encoding="UTF-8" standalone="no"?><!-- Generator: Gravit.io --><svg xmlns="http://www.w3.org/2000/svg" xmlns:xlink="http://www.w3.org/1999/xlink" style="isolation:isolate" viewBox="0 -250 2904.4 500" width="2904.4pt" height="500pt"><g><path d=" M 2085.7 88.95 L 2085.7 -97.65 L 2061.4 -101.25 L 2061.4 -116.25 L 2147.5 -116.25 L 2147.5 -101.25 L 2117.8 -97.65 L 2117.8 88.95 L 2195.2 86.25 L 2212.9 35.85 L 2231.2 38.55 L 2220.7 106.65 L 2060.8 106.65 L 2060.8 91.95 L 2085.7 88.95 L 2085.7 88.95 Z  M 2285.5 -89.85 L 2285.5 -89.85 Q 2275.9 -89.85 2271.1 -95.25 L 2271.1 -95.25 L 2271.1 -95.25 Q 2266.3 -100.65 2266.3 -109.05 L 2266.3 -109.05 L 2266.3 -109.05 Q 2266.3 -118.65 2272.15 -124.95 L 2272.15 -124.95 L 2272.15 -124.95 Q 2278 -131.25 2288.2 -131.25 L 2288.2 -131.25 L 2288.2 -131.25 Q 2298.4 -131.25 2303.2 -125.85 L 2303.2 -125.85 L 2303.2 -125.85 Q 2308 -120.45 2308 -112.05 L 2308 -112.05 L 2308 -112.05 Q 2308 -101.85 2302.15 -95.85 L 2302.15 -95.85 L 2302.15 -95.85 Q 2296.3 -89.85 2285.8 -89.85 L 2285.8 -89.85 L 2285.5 -89.85 L 2285.5 -89.85 Z  M 2273.5 89.25 L 2273.5 -36.75 L 2250.7 -42.15 L 2250.7 -58.05 L 2297.2 -63.75 L 2297.8 -63.75 L 2304.7 -58.35 L 2304.7 89.55 L 2328.7 91.95 L 2328.7 106.65 L 2249.2 106.65 L 2249.2 91.95 L 2273.5 89.25 L 2273.5 89.25 Z  M 2372.5 59.25 L 2377.9 82.65 L 2377.9 82.65 Q 2380.9 87.15 2390.65 90.75 L 2390.65 90.75 L 2390.65 90.75 Q 2400.4 94.35 2411.2 94.35 L 2411.2 94.35 L 2411.2 94.35 Q 2428.3 94.35 2436.4 87.75 L 2436.4 87.75 L 2436.4 87.75 Q 2444.5 81.15 2444.5 69.45 L 2444.5 69.45 L 2444.5 69.45 Q 2444.5 61.35 2439.4 55.35 L 2439.4 55.35 L 2439.4 55.35 Q 2434.3 49.35 2425.15 44.7 L 2425.15 44.7 L 2425.15 44.7 Q 2416 40.05 2398.9 33.45 L 2398.9 33.45 L 2398.9 33.45 Q 2375.8 24.75 2365.15 12.6 L 2365.15 12.6 L 2365.15 12.6 Q 2354.5 0.45 2354.5 -19.35 L 2354.5 -19.35 L 2354.5 -19.35 Q 2354.5 -32.55 2362.45 -42.45 L 2362.45 -42.45 L 2362.45 -42.45 Q 2370.4 -52.35 2384.35 -57.9 L 2384.35 -57.9 L 2384.35 -57.9 Q 2398.3 -63.45 2415.4 -63.45 L 2415.4 -63.45 L 2415.4 -63.45 Q 2429.2 -63.45 2439.55 -61.35 L 2439.55 -61.35 L 2439.55 -61.35 Q 2449.9 -59.25 2456.2 -57.15 L 2456.2 -57.15 L 2456.2 -57.15 Q 2462.5 -55.05 2464.6 -54.45 L 2464.6 -54.45 L 2464.6 -17.25 L 2446.3 -17.25 L 2440.3 -39.45 L 2440.3 -39.45 Q 2438.5 -43.05 2430.7 -45.6 L 2430.7 -45.6 L 2430.7 -45.6 Q 2422.9 -48.15 2413.3 -48.15 L 2413.3 -48.15 L 2413.3 -48.15 Q 2399.8 -48.15 2391.55 -42.15 L 2391.55 -42.15 L 2391.55 -42.15 Q 2383.3 -36.15 2383.3 -25.95 L 2383.3 -25.95 L 2383.3 -25.95 Q 2383.3 -16.95 2387.65 -11.1 L 2387.65 -11.1 L 2387.65 -11.1 Q 2392 -5.25 2398.6 -1.65 L 2398.6 -1.65 L 2398.6 -1.65 Q 2405.2 1.95 2416.6 6.75 L 2416.6 6.75 L 2422.6 9.15 L 2422.6 9.15 Q 2439.4 15.75 2449.9 21.75 L 2449.9 21.75 L 2449.9 21.75 Q 2460.4 27.75 2467.45 37.5 L 2467.45 37.5 L 2467.45 37.5 Q 2474.5 47.25 2474.5 61.35 L 2474.5 61.35 L 2474.5 61.35 Q 2474.5 83.55 2457.25 96.75 L 2457.25 96.75 L 2457.25 96.75 Q 2440 109.95 2410 109.95 L 2410 109.95 L 2410 109.95 Q 2395.3 109.95 2379.25 105.9 L 2379.25 105.9 L 2379.25 105.9 Q 2363.2 101.85 2353 97.65 L 2353 97.65 L 2353 59.25 L 2372.5 59.25 L 2372.5 59.25 Z  M 2552.8 109.65 L 2552.8 109.65 Q 2535.7 109.65 2527.3 101.85 L 2527.3 101.85 L 2527.3 101.85 Q 2518.9 94.05 2518.9 75.15 L 2518.9 75.15 L 2518.9 -40.05 L 2497.3 -40.05 L 2497.3 -53.55 L 2497.3 -53.55 Q 2498.8 -53.85 2505.7 -55.65 L 2505.7 -55.65 L 2505.7 -55.65 Q 2512.6 -57.45 2515 -58.95 L 2515 -58.95 L 2515 -58.95 Q 2519.8 -61.65 2522.5 -69.75 L 2522.5 -69.75 L 2522.5 -69.75 Q 2524.9 -75.45 2528.2 -88.05 L 2528.2 -88.05 L 2528.2 -88.05 Q 2531.5 -100.65 2532.1 -103.05 L 2532.1 -103.05 L 2549.8 -103.05 L 2550.4 -59.85 L 2600.5 -59.85 L 2600.5 -40.05 L 2550.4 -40.05 L 2550.4 52.05 L 2550.4 52.05 Q 2550.4 69.15 2551.45 76.05 L 2551.45 76.05 L 2551.45 76.05 Q 2552.5 82.95 2555.95 85.05 L 2555.95 85.05 L 2555.95 85.05 Q 2559.4 87.15 2567.8 87.15 L 2567.8 87.15 L 2567.8 87.15 Q 2575.9 87.15 2585.65 85.05 L 2585.65 85.05 L 2585.65 85.05 Q 2595.4 82.95 2600.8 80.55 L 2600.8 80.55 L 2605.3 94.05 L 2605.3 94.05 Q 2598.1 99.45 2582.05 104.55 L 2582.05 104.55 L 2582.05 104.55 Q 2566 109.65 2552.8 109.65 L 2552.8 109.65 L 2552.8 109.65 Z  M 2697.4 109.95 L 2697.4 109.95 Q 2661.1 109.95 2642.05 86.25 L 2642.05 86.25 L 2642.05 86.25 Q 2623 62.55 2623 22.95 L 2623 22.95 L 2623 22.95 Q 2623 -3.15 2632.9 -22.95 L 2632.9 -22.95 L 2632.9 -22.95 Q 2642.8 -42.75 2660.65 -53.55 L 2660.65 -53.55 L 2660.65 -53.55 Q 2678.5 -64.35 2701.3 -64.35 L 2701.3 -64.35 L 2701.3 -64.35 Q 2729.2 -64.35 2744.65 -48.9 L 2744.65 -48.9 L 2744.65 -48.9 Q 2760.1 -33.45 2761 -4.65 L 2761 -4.65 L 2761 -4.65 Q 2761 13.65 2758.9 23.25 L 2758.9 23.25 L 2655.7 23.25 L 2655.7 23.25 Q 2656.3 52.95 2669.5 71.1 L 2669.5 71.1 L 2669.5 71.1 Q 2682.7 89.25 2707 89.25 L 2707 89.25 L 2707 89.25 Q 2719 89.25 2732.05 84.9 L 2732.05 84.9 L 2732.05 84.9 Q 2745.1 80.55 2752.3 74.55 L 2752.3 74.55 L 2758 87.75 L 2758 87.75 Q 2749.3 96.75 2732.2 103.35 L 2732.2 103.35 L 2732.2 103.35 Q 2715.1 109.95 2697.4 109.95 L 2697.4 109.95 L 2697.4 109.95 Z  M 2656 7.35 L 2728 7.35 L 2728 7.35 Q 2728.9 1.05 2728.9 -5.55 L 2728.9 -5.55 L 2728.9 -5.55 Q 2728.6 -25.05 2720.65 -36.3 L 2720.65 -36.3 L 2720.65 -36.3 Q 2712.7 -47.55 2695.6 -47.55 L 2695.6 -47.55 L 2695.6 -47.55 Q 2678.2 -47.55 2667.85 -34.95 L 2667.85 -34.95 L 2667.85 -34.95 Q 2657.5 -22.35 2656 7.35 L 2656 7.35 L 2656 7.35 Z  M 2787.4 106.65 L 2787.4 91.95 L 2809.9 90.15 L 2809.9 -36.75 L 2788.3 -42.15 L 2788.3 -58.35 L 2829.7 -63.75 L 2830.3 -63.75 L 2836.9 -58.35 L 2836.9 -52.95 L 2836 -29.55 L 2836.9 -29.55 L 2836.9 -29.55 Q 2839.9 -34.65 2847.7 -42.75 L 2847.7 -42.75 L 2847.7 -42.75 Q 2855.5 -50.85 2867.8 -57.6 L 2867.8 -57.6 L 2867.8 -57.6 Q 2880.1 -64.35 2894.5 -64.35 L 2894.5 -64.35 L 2894.5 -64.35 Q 2900.5 -64.35 2904.4 -62.85 L 2904.4 -62.85 L 2904.4 -29.25 L 2904.4 -29.25 Q 2902.3 -30.75 2897.65 -32.1 L 2897.65 -32.1 L 2897.65 -32.1 Q 2893 -33.45 2887.3 -33.45 L 2887.3 -33.45 L 2887.3 -33.45 Q 2862.4 -33.45 2841.1 -18.15 L 2841.1 -18.15 L 2841.1 89.85 L 2879.2 92.25 L 2879.2 106.65 L 2787.4 106.65 L 2787.4 106.65 Z  M 618.7 88.95 L 618.7 -97.65 L 595.3 -101.25 L 595.3 -116.25 L 634.6 -116.25 L 634.6 -116.25 Q 643.9 -116.25 661.3 -117.45 L 661.3 -117.45 L 661.3 -117.45 Q 678.7 -118.65 687.4 -118.65 L 687.4 -118.65 L 687.4 -118.65 Q 743.2 -118.65 770.35 -90.6 L 770.35 -90.6 L 770.35 -90.6 Q 797.5 -62.55 797.5 -11.85 L 797.5 -11.85 L 797.5 -11.85 Q 797.5 23.55 783.55 51 L 783.55 51 L 783.55 51 Q 769.6 78.45 744.4 93.75 L 744.4 93.75 L 744.4 93.75 Q 719.2 109.05 686.5 109.05 L 686.5 109.05 L 686.5 109.05 Q 679.3 109.05 661.9 107.85 L 661.9 107.85 L 661.9 107.85 Q 643.9 106.65 634.9 106.65 L 634.9 106.65 L 593.8 106.65 L 593.8 91.95 L 618.7 88.95 L 618.7 88.95 Z  M 650.5 89.85 L 650.5 89.85 Q 661 92.25 677.5 92.25 L 677.5 92.25 L 686.5 92.25 L 686.5 92.25 Q 709 91.95 726.25 80.85 L 726.25 80.85 L 726.25 80.85 Q 743.5 69.75 753.1 47.7 L 753.1 47.7 L 753.1 47.7 Q 762.7 25.65 762.7 -5.85 L 762.7 -5.85 L 762.7 -5.85 Q 762.7 -53.25 742.15 -77.85 L 742.15 -77.85 L 742.15 -77.85 Q 721.6 -102.45 680.2 -102.45 L 680.2 -102.45 L 680.2 -102.45 Q 671.5 -102.45 659.5 -101.25 L 659.5 -101.25 L 659.5 -101.25 Q 654.4 -100.35 650.5 -100.35 L 650.5 -100.35 L 650.5 89.85 L 650.5 89.85 Z  M 856.3 -89.85 L 856.3 -89.85 Q 846.7 -89.85 841.9 -95.25 L 841.9 -95.25 L 841.9 -95.25 Q 837.1 -100.65 837.1 -109.05 L 837.1 -109.05 L 837.1 -109.05 Q 837.1 -118.65 842.95 -124.95 L 842.95 -124.95 L 842.95 -124.95 Q 848.8 -131.25 859 -131.25 L 859 -131.25 L 859 -131.25 Q 869.2 -131.25 874 -125.85 L 874 -125.85 L 874 -125.85 Q 878.8 -120.45 878.8 -112.05 L 878.8 -112.05 L 878.8 -112.05 Q 878.8 -101.85 872.95 -95.85 L 872.95 -95.85 L 872.95 -95.85 Q 867.1 -89.85 856.6 -89.85 L 856.6 -89.85 L 856.3 -89.85 L 856.3 -89.85 Z  M 844.3 89.25 L 844.3 -36.75 L 821.5 -42.15 L 821.5 -58.05 L 868 -63.75 L 868.6 -63.75 L 875.5 -58.35 L 875.5 89.55 L 899.5 91.95 L 899.5 106.65 L 820 106.65 L 820 91.95 L 844.3 89.25 L 844.3 89.25 Z  M 921.4 106.65 L 921.4 91.95 L 943.9 90.15 L 943.9 -36.75 L 922.3 -42.15 L 922.3 -58.35 L 963.7 -63.75 L 964.3 -63.75 L 970.9 -58.35 L 970.9 -52.95 L 970 -29.55 L 970.9 -29.55 L 970.9 -29.55 Q 973.9 -34.65 981.7 -42.75 L 981.7 -42.75 L 981.7 -42.75 Q 989.5 -50.85 1001.8 -57.6 L 1001.8 -57.6 L 1001.8 -57.6 Q 1014.1 -64.35 1028.5 -64.35 L 1028.5 -64.35 L 1028.5 -64.35 Q 1034.5 -64.35 1038.4 -62.85 L 1038.4 -62.85 L 1038.4 -29.25 L 1038.4 -29.25 Q 1036.3 -30.75 1031.65 -32.1 L 1031.65 -32.1 L 1031.65 -32.1 Q 1027 -33.45 1021.3 -33.45 L 1021.3 -33.45 L 1021.3 -33.45 Q 996.4 -33.45 975.1 -18.15 L 975.1 -18.15 L 975.1 89.85 L 1013.2 92.25 L 1013.2 106.65 L 921.4 106.65 L 921.4 106.65 Z  M 1132 109.95 L 1132 109.95 Q 1095.7 109.95 1076.65 86.25 L 1076.65 86.25 L 1076.65 86.25 Q 1057.6 62.55 1057.6 22.95 L 1057.6 22.95 L 1057.6 22.95 Q 1057.6 -3.15 1067.5 -22.95 L 1067.5 -22.95 L 1067.5 -22.95 Q 1077.4 -42.75 1095.25 -53.55 L 1095.25 -53.55 L 1095.25 -53.55 Q 1113.1 -64.35 1135.9 -64.35 L 1135.9 -64.35 L 1135.9 -64.35 Q 1163.8 -64.35 1179.25 -48.9 L 1179.25 -48.9 L 1179.25 -48.9 Q 1194.7 -33.45 1195.6 -4.65 L 1195.6 -4.65 L 1195.6 -4.65 Q 1195.6 13.65 1193.5 23.25 L 1193.5 23.25 L 1090.3 23.25 L 1090.3 23.25 Q 1090.9 52.95 1104.1 71.1 L 1104.1 71.1 L 1104.1 71.1 Q 1117.3 89.25 1141.6 89.25 L 1141.6 89.25 L 1141.6 89.25 Q 1153.6 89.25 1166.65 84.9 L 1166.65 84.9 L 1166.65 84.9 Q 1179.7 80.55 1186.9 74.55 L 1186.9 74.55 L 1192.6 87.75 L 1192.6 87.75 Q 1183.9 96.75 1166.8 103.35 L 1166.8 103.35 L 1166.8 103.35 Q 1149.7 109.95 1132 109.95 L 1132 109.95 L 1132 109.95 Z  M 1090.6 7.35 L 1162.6 7.35 L 1162.6 7.35 Q 1163.5 1.05 1163.5 -5.55 L 1163.5 -5.55 L 1163.5 -5.55 Q 1163.2 -25.05 1155.25 -36.3 L 1155.25 -36.3 L 1155.25 -36.3 Q 1147.3 -47.55 1130.2 -47.55 L 1130.2 -47.55 L 1130.2 -47.55 Q 1112.8 -47.55 1102.45 -34.95 L 1102.45 -34.95 L 1102.45 -34.95 Q 1092.1 -22.35 1090.6 7.35 L 1090.6 7.35 L 1090.6 7.35 Z  M 1217.8 24.45 L 1217.8 24.45 Q 1217.8 -0.45 1227.55 -20.55 L 1227.55 -20.55 L 1227.55 -20.55 Q 1237.3 -40.65 1256.35 -52.5 L 1256.35 -52.5 L 1256.35 -52.5 Q 1275.4 -64.35 1302.1 -64.35 L 1302.1 -64.35 L 1302.1 -64.35 Q 1315 -64.35 1324.3 -61.95 L 1324.3 -61.95 L 1324.3 -61.95 Q 1333.6 -59.55 1346.5 -55.35 L 1346.5 -55.35 L 1345.3 -9.15 L 1325.8 -9.15 L 1319.2 -39.75 L 1319.2 -39.75 Q 1317.4 -48.15 1296.4 -48.15 L 1296.4 -48.15 L 1296.4 -48.15 Q 1275.4 -48.15 1263.25 -31.2 L 1263.25 -31.2 L 1263.25 -31.2 Q 1251.1 -14.25 1251.1 16.95 L 1251.1 16.95 L 1251.1 16.95 Q 1251.1 52.35 1264.75 70.8 L 1264.75 70.8 L 1264.75 70.8 Q 1278.4 89.25 1300.3 89.25 L 1300.3 89.25 L 1300.3 89.25 Q 1312.9 89.25 1324.15 85.35 L 1324.15 85.35 L 1324.15 85.35 Q 1335.4 81.45 1343.5 76.05 L 1343.5 76.05 L 1349.2 88.05 L 1349.2 88.05 Q 1341.1 96.45 1325.35 103.2 L 1325.35 103.2 L 1325.35 103.2 Q 1309.6 109.95 1293.4 109.95 L 1293.4 109.95 L 1293.4 109.95 Q 1268.8 109.95 1251.85 98.85 L 1251.85 98.85 L 1251.85 98.85 Q 1234.9 87.75 1226.35 68.4 L 1226.35 68.4 L 1226.35 68.4 Q 1217.8 49.05 1217.8 24.45 L 1217.8 24.45 L 1217.8 24.45 Z  M 1426.6 109.65 L 1426.6 109.65 Q 1409.5 109.65 1401.1 101.85 L 1401.1 101.85 L 1401.1 101.85 Q 1392.7 94.05 1392.7 75.15 L 1392.7 75.15 L 1392.7 -40.05 L 1371.1 -40.05 L 1371.1 -53.55 L 1371.1 -53.55 Q 1372.6 -53.85 1379.5 -55.65 L 1379.5 -55.65 L 1379.5 -55.65 Q 1386.4 -57.45 1388.8 -58.95 L 1388.8 -58.95 L 1388.8 -58.95 Q 1393.6 -61.65 1396.3 -69.75 L 1396.3 -69.75 L 1396.3 -69.75 Q 1398.7 -75.45 1402 -88.05 L 1402 -88.05 L 1402 -88.05 Q 1405.3 -100.65 1405.9 -103.05 L 1405.9 -103.05 L 1423.6 -103.05 L 1424.2 -59.85 L 1474.3 -59.85 L 1474.3 -40.05 L 1424.2 -40.05 L 1424.2 52.05 L 1424.2 52.05 Q 1424.2 69.15 1425.25 76.05 L 1425.25 76.05 L 1425.25 76.05 Q 1426.3 82.95 1429.75 85.05 L 1429.75 85.05 L 1429.75 85.05 Q 1433.2 87.15 1441.6 87.15 L 1441.6 87.15 L 1441.6 87.15 Q 1449.7 87.15 1459.45 85.05 L 1459.45 85.05 L 1459.45 85.05 Q 1469.2 82.95 1474.6 80.55 L 1474.6 80.55 L 1479.1 94.05 L 1479.1 94.05 Q 1471.9 99.45 1455.85 104.55 L 1455.85 104.55 L 1455.85 104.55 Q 1439.8 109.65 1426.6 109.65 L 1426.6 109.65 L 1426.6 109.65 Z  M 1497.4 22.95 L 1497.4 22.95 Q 1497.4 -4.05 1508.5 -23.85 L 1508.5 -23.85 L 1508.5 -23.85 Q 1519.6 -43.65 1537.75 -54 L 1537.75 -54 L 1537.75 -54 Q 1555.9 -64.35 1576.6 -64.35 L 1576.6 -64.35 L 1576.6 -64.35 Q 1614.4 -64.35 1633.45 -40.35 L 1633.45 -40.35 L 1633.45 -40.35 Q 1652.5 -16.35 1652.5 22.65 L 1652.5 22.65 L 1652.5 22.65 Q 1652.5 49.95 1641.4 69.75 L 1641.4 69.75 L 1641.4 69.75 Q 1630.3 89.55 1612.15 99.75 L 1612.15 99.75 L 1612.15 99.75 Q 1594 109.95 1573.3 109.95 L 1573.3 109.95 L 1573.3 109.95 Q 1535.5 109.95 1516.45 85.95 L 1516.45 85.95 L 1516.45 85.95 Q 1497.4 61.95 1497.4 22.95 L 1497.4 22.95 L 1497.4 22.95 Z  M 1575.1 92.85 L 1575.1 92.85 Q 1595.8 92.85 1606.9 75.75 L 1606.9 75.75 L 1606.9 75.75 Q 1618 58.65 1618 25.05 L 1618 25.05 L 1618 25.05 Q 1618 -8.25 1607.8 -27.75 L 1607.8 -27.75 L 1607.8 -27.75 Q 1597.6 -47.25 1575.1 -47.25 L 1575.1 -47.25 L 1575.1 -47.25 Q 1554.4 -47.25 1543.15 -30.15 L 1543.15 -30.15 L 1543.15 -30.15 Q 1531.9 -13.05 1531.9 20.55 L 1531.9 20.55 L 1531.9 20.55 Q 1531.9 53.85 1542.4 73.35 L 1542.4 73.35 L 1542.4 73.35 Q 1552.9 92.85 1575.1 92.85 L 1575.1 92.85 L 1575.1 92.85 Z  M 1680.4 106.65 L 1680.4 91.95 L 1702.9 90.15 L 1702.9 -36.75 L 1681.3 -42.15 L 1681.3 -58.35 L 1722.7 -63.75 L 1723.3 -63.75 L 1729.9 -58.35 L 1729.9 -52.95 L 1729 -29.55 L 1729.9 -29.55 L 1729.9 -29.55 Q 1732.9 -34.65 1740.7 -42.75 L 1740.7 -42.75 L 1740.7 -42.75 Q 1748.5 -50.85 1760.8 -57.6 L 1760.8 -57.6 L 1760.8 -57.6 Q 1773.1 -64.35 1787.5 -64.35 L 1787.5 -64.35 L 1787.5 -64.35 Q 1793.5 -64.35 1797.4 -62.85 L 1797.4 -62.85 L 1797.4 -29.25 L 1797.4 -29.25 Q 1795.3 -30.75 1790.65 -32.1 L 1790.65 -32.1 L 1790.65 -32.1 Q 1786 -33.45 1780.3 -33.45 L 1780.3 -33.45 L 1780.3 -33.45 Q 1755.4 -33.45 1734.1 -18.15 L 1734.1 -18.15 L 1734.1 89.85 L 1772.2 92.25 L 1772.2 106.65 L 1680.4 106.65 L 1680.4 106.65 Z  M 1841.5 181.35 L 1841.5 181.35 Q 1836.4 181.35 1831.45 180.75 L 1831.45 180.75 L 1831.45 180.75 Q 1826.5 180.15 1824.4 178.95 L 1824.4 178.95 L 1824.4 152.85 L 1824.4 152.85 Q 1826.2 154.05 1831.45 154.65 L 1831.45 154.65 L 1831.45 154.65 Q 1836.7 155.25 1841.5 155.25 L 1841.5 155.25 L 1841.5 155.25 Q 1855.9 155.25 1866.85 145.2 L 1866.85 145.2 L 1866.85 145.2 Q 1877.8 135.15 1888 106.65 L 1888 106.65 L 1873.6 106.65 L 1816.6 -41.85 L 1802.8 -45.75 L 1802.8 -59.85 L 1875.1 -59.85 L 1875.1 -45.75 L 1852 -42.15 L 1881.4 46.35 L 1895.2 90.15 L 1908.1 46.05 L 1934.8 -42.15 L 1914.7 -45.75 L 1914.7 -59.85 L 1975 -59.85 L 1975 -45.75 L 1960 -42.15 L 1960 -42.15 Q 1915.9 92.85 1908.1 111.15 L 1908.1 111.15 L 1908.1 111.15 Q 1897.9 136.95 1889.5 151.5 L 1889.5 151.5 L 1889.5 151.5 Q 1881.1 166.05 1869.7 173.7 L 1869.7 173.7 L 1869.7 173.7 Q 1858.3 181.35 1841.5 181.35 L 1841.5 181.35 L 1841.5 181.35 Z " fill="rgb(26,32,44)"/><circle vector-effect="non-scaling-stroke" cx="250" cy="0" r="250" fill="rgb(49,130,206)"/><clipPath id="_clipPath_R9Ij04jj0TMeg7gkRpjPYF6zo4Qeamr5"><circle vector-effect="non-scaling-stroke" cx="250" cy="0" r="250" fill="rgb(49,130,206)"/></clipPath><g clip-path="url(#_clipPath_R9Ij04jj0TMeg7gkRpjPYF6zo4Qeamr5)"><defs><filter id="RNkfsI1KdYOxqxJCYyYU6E1SfEU0vr09" x="-200%" y="-200%" width="400%" height="400%" filterUnits="objectBoundingBox" color-interpolation-filters="sRGB"><feGaussianBlur xmlns="http://www.w3.org/2000/svg" in="SourceGraphic" stdDeviation="8.587218125678056"/><feOffset xmlns="http://www.w3.org/2000/svg" dx="0" dy="0" result="pf_100_offsetBlur"/><feFlood xmlns="http://www.w3.org/2000/svg" flood-color="#000000" flood-opacity="0.33"/><feComposite xmlns="http://www.w3.org/2000/svg" in2="pf_100_offsetBlur" operator="in" result="pf_100_dropShadow"/><feBlend xmlns="http://www.w3.org/2000/svg" in="SourceGraphic" in2="pf_100_dropShadow" mode="normal"/></filter></defs><g filter="url(#RNkfsI1KdYOxqxJCYyYU6E1SfEU0vr09)"><path d=" M 378 -112 L 322 -112 L 306 -128 L 266 -128 C 257.163 -128 250 -120.837 250 -112 L 250 -32 C 250 -23.163 257.163 -16 266 -16 L 378 -16 C 386.837 -16 394 -23.163 394 -32 L 394 -96 C 394 -104.837 386.837 -112 378 -112 Z  M 378 32 L 322 32 L 306 16 L 266 16 C 257.163 16 250 23.163 250 32 L 250 112 C 250 120.837 257.163 128 266 128 L 378 128 C 386.837 128 394 120.837 394 112 L 394 48 C 394 39.163 386.837 32 378 32 Z  M 138 -120 C 138 -124.418 134.418 -128 130 -128 L 114 -128 C 109.582 -128 106 -124.418 106 -120 L 106 80 C 106 88.837 113.163 96 122 96 L 234 96 L 234 64 L 138 64 L 138 -48 L 234 -48 L 234 -80 L 138 -80 L 138 -120 Z " fill="rgb(255,255,255)"/></g></g></g></svg>