<svg xmlns="http://www.w3.org/2000/svg" style="isolation:isolate" viewBox="0 0 1449.7 250" width="1449.7pt" height="250pt"><path d="M1040.35 169.475v-93.3l-12.15-1.8v-7.5h43.05v7.5l-14.85 1.8v93.3l38.7-1.35 8.85-25.2 9.15 1.35-5.25 34.05h-79.95v-7.35l12.45-1.5zm99.9-89.4q-4.8 0-7.2-2.7-2.4-2.7-2.4-6.9 0-4.8 2.925-7.95 2.925-3.15 8.025-3.15 5.1 0 7.5 2.7 2.4 2.7 2.4 6.9 0 5.1-2.925 8.1t-8.175 3h-.15zm-6 89.55v-63l-11.4-2.7v-7.95l23.25-2.85h.3l3.45 2.7v73.95l12 1.2v7.35h-39.75v-7.35l12.15-1.35zm49.5-15l2.7 11.7q1.5 2.25 6.375 4.05 4.875 1.8 10.275 1.8 8.55 0 12.6-3.3 4.05-3.3 4.05-9.15 0-4.05-2.55-7.05t-7.125-5.325q-4.575-2.325-13.125-5.625-11.55-4.35-16.875-10.425-5.325-6.075-5.325-15.975 0-6.6 3.975-11.55 3.975-4.95 10.95-7.725 6.975-2.775 15.525-2.775 6.9 0 12.075 1.05 5.175 1.05 8.325 2.1 3.15 1.05 4.2 1.35v18.6h-9.15l-3-11.1q-.9-1.8-4.8-3.075-3.9-1.275-8.7-1.275-6.75 0-10.875 3t-4.125 8.1q0 4.5 2.175 7.425t5.475 4.725q3.3 1.8 9 4.2l3 1.2q8.4 3.3 13.65 6.3t8.775 7.875q3.525 4.875 3.525 11.925 0 11.1-8.625 17.7t-23.625 6.6q-7.35 0-15.375-2.025T1174 173.825v-19.2h9.75zm90.15 25.2q-8.55 0-12.75-3.9-4.2-3.9-4.2-13.35v-57.6h-10.8v-6.75q.75-.15 4.2-1.05t4.65-1.65q2.4-1.35 3.75-5.4 1.2-2.85 2.85-9.15 1.65-6.3 1.95-7.5h8.85l.3 21.6h25.05v9.9h-25.05v46.05q0 8.55.525 12 .525 3.45 2.25 4.5 1.725 1.05 5.925 1.05 4.05 0 8.925-1.05 4.875-1.05 7.575-2.25l2.25 6.75q-3.6 2.7-11.625 5.25t-14.625 2.55zm72.3.15q-18.15 0-27.675-11.85-9.525-11.85-9.525-31.65 0-13.05 4.95-22.95 4.95-9.9 13.875-15.3t20.325-5.4q13.95 0 21.675 7.725 7.725 7.725 8.175 22.125 0 9.15-1.05 13.95h-51.6q.3 14.85 6.9 23.925 6.6 9.075 18.75 9.075 6 0 12.525-2.175t10.125-5.175l2.85 6.6q-4.35 4.5-12.9 7.8t-17.4 3.3zm-20.7-51.3h36q.45-3.15.45-6.45-.15-9.75-4.125-15.375t-12.525-5.625q-8.7 0-13.875 6.3-5.175 6.3-5.925 21.15zm65.7 49.65v-7.35l11.25-.9v-63.45l-10.8-2.7v-8.1l20.7-2.7h.3l3.3 2.7v2.7l-.45 11.7h.45q1.5-2.55 5.4-6.6 3.9-4.05 10.05-7.425t13.35-3.375q3 0 4.95.75v16.8q-1.05-.75-3.375-1.425t-5.175-.675q-12.45 0-23.1 7.65v54l19.05 1.2v7.2h-45.9zm-1084.35-8.85v-93.3l-11.7-1.8v-7.5h19.65q4.65 0 13.35-.6t13.05-.6q27.9 0 41.475 14.025 13.575 14.025 13.575 39.375 0 17.7-6.975 31.425-6.975 13.725-19.575 21.375t-28.95 7.65q-3.6 0-12.3-.6-9-.6-13.5-.6H294.4v-7.35l12.45-1.5zm15.9.45q5.25 1.2 13.5 1.2h4.5q11.25-.15 19.875-5.7t13.425-16.575q4.8-11.025 4.8-26.775 0-23.7-10.275-36t-30.975-12.3q-4.35 0-10.35.6-2.55.45-4.5.45v95.1zm102.9-89.85q-4.8 0-7.2-2.7-2.4-2.7-2.4-6.9 0-4.8 2.925-7.95 2.925-3.15 8.025-3.15 5.1 0 7.5 2.7 2.4 2.7 2.4 6.9 0 5.1-2.925 8.1t-8.175 3h-.15zm-6 89.55v-63l-11.4-2.7v-7.95l23.25-2.85h.3l3.45 2.7v73.95l12 1.2v7.35H407.5v-7.35l12.15-1.35zm38.55 8.7v-7.35l11.25-.9v-63.45l-10.8-2.7v-8.1l20.7-2.7h.3l3.3 2.7v2.7l-.45 11.7h.45q1.5-2.55 5.4-6.6 3.9-4.05 10.05-7.425t13.35-3.375q3 0 4.95.75v16.8q-1.05-.75-3.375-1.425t-5.175-.675q-12.45 0-23.1 7.65v54l19.05 1.2v7.2h-45.9zm105.3 1.65q-18.15 0-27.675-11.85-9.525-11.85-9.525-31.65 0-13.05 4.95-22.95 4.95-9.9 13.875-15.3t20.325-5.4q13.95 0 21.675 7.725 7.725 7.725 8.175 22.125 0 9.15-1.05 13.95h-51.6q.3 14.85 6.9 23.925 6.6 9.075 18.75 9.075 6 0 12.525-2.175t10.125-5.175l2.85 6.6q-4.35 4.5-12.9 7.8t-17.4 3.3zm-20.7-51.3h36q.45-3.15.45-6.45-.15-9.75-4.125-15.375t-12.525-5.625q-8.7 0-13.875 6.3-5.175 6.3-5.925 21.15zm63.6 8.55q0-12.45 4.875-22.5t14.4-15.975q9.525-5.925 22.875-5.925 6.45 0 11.1 1.2 4.65 1.2 11.1 3.3l-.6 23.1h-9.75l-3.3-15.3q-.9-4.2-11.4-4.2t-16.575 8.475q-6.075 8.475-6.075 24.075 0 17.7 6.825 26.925 6.825 9.225 17.775 9.225 6.3 0 11.925-1.95 5.625-1.95 9.675-4.65l2.85 6q-4.05 4.2-11.925 7.575-7.875 3.375-15.975 3.375-12.3 0-20.775-5.55-8.475-5.55-12.75-15.225t-4.275-21.975zm104.4 42.6q-8.55 0-12.75-3.9-4.2-3.9-4.2-13.35v-57.6h-10.8v-6.75q.75-.15 4.2-1.05t4.65-1.65q2.4-1.35 3.75-5.4 1.2-2.85 2.85-9.15 1.65-6.3 1.95-7.5h8.85l.3 21.6h25.05v9.9H709.6v46.05q0 8.55.525 12 .525 3.45 2.25 4.5 1.725 1.05 5.925 1.05 4.05 0 8.925-1.05 4.875-1.05 7.575-2.25l2.25 6.75q-3.6 2.7-11.625 5.25t-14.625 2.55zm35.4-43.35q0-13.5 5.55-23.4 5.55-9.9 14.625-15.075 9.075-5.175 19.425-5.175 18.9 0 28.425 12 9.525 12 9.525 31.5 0 13.65-5.55 23.55t-14.625 15q-9.075 5.1-19.425 5.1-18.9 0-28.425-12-9.525-12-9.525-31.5zm38.85 34.95q10.35 0 15.9-8.55 5.55-8.55 5.55-25.35 0-16.65-5.1-26.4t-16.35-9.75q-10.35 0-15.975 8.55t-5.625 25.35q0 16.65 5.25 26.4t16.35 9.75zm52.65 6.9v-7.35l11.25-.9v-63.45l-10.8-2.7v-8.1l20.7-2.7h.3l3.3 2.7v2.7l-.45 11.7h.45q1.5-2.55 5.4-6.6 3.9-4.05 10.05-7.425t13.35-3.375q3 0 4.95.75v16.8q-1.05-.75-3.375-1.425t-5.175-.675q-12.45 0-23.1 7.65v54l19.05 1.2v7.2h-45.9zm80.55 37.35q-2.55 0-5.025-.3-2.475-.3-3.525-.9v-13.05q.9.6 3.525.9 2.625.3 5.025.3 7.2 0 12.675-5.025 5.475-5.025 10.575-19.275h-7.2l-28.5-74.25-6.9-1.95v-7.05h36.15v7.05l-11.55 1.8 14.7 44.25 6.9 21.9 6.45-22.05 13.35-44.1-10.05-1.8v-7.05H985v7.05l-7.5 1.8q-22.05 67.5-25.95 76.65-5.1 12.9-9.3 20.175-4.2 7.275-9.9 11.1-5.7 3.825-14.1 3.825z" fill="#1A202C"/><circle vector-effect="non-scaling-stroke" cx="125" cy="125" r="125" fill="#3182CE"/><clipPath id="a"><circle vector-effect="non-scaling-stroke" cx="125" cy="125" r="125" fill="#3182CE"/></clipPath><g clip-path="url(#a)"><defs><filter id="b" x="-200%" y="-200%" width="400%" height="400%" filterUnits="objectBoundingBox" color-interpolation-filters="sRGB"><feGaussianBlur xmlns="http://www.w3.org/2000/svg" in="SourceGraphic" stdDeviation="8.587"/><feOffset xmlns="http://www.w3.org/2000/svg" result="pf_100_offsetBlur"/><feFlood xmlns="http://www.w3.org/2000/svg" flood-color="#000" flood-opacity=".33"/><feComposite xmlns="http://www.w3.org/2000/svg" in2="pf_100_offsetBlur" operator="in" result="pf_100_dropShadow"/><feBlend xmlns="http://www.w3.org/2000/svg" in="SourceGraphic" in2="pf_100_dropShadow"/></filter></defs><g filter="url(#b)"><path d="M189 69h-28l-8-8h-20a8 8 0 00-8 8v40a8 8 0 008 8h56a8 8 0 008-8V77a8 8 0 00-8-8zm0 72h-28l-8-8h-20a8 8 0 00-8 8v40a8 8 0 008 8h56a8 8 0 008-8v-32a8 8 0 00-8-8zM69 65a4 4 0 00-4-4h-8a4 4 0 00-4 4v100a8 8 0 008 8h56v-16H69v-56h48V85H69V65z" fill="#FFF"/></g></g></svg>